<?xml version="1.0" standalone="no"?>
<!DOCTYPE svg PUBLIC "-//W3C//DTD SVG 20010904//EN"
 "http://www.w3.org/TR/2001/REC-SVG-20010904/DTD/svg10.dtd">
<svg version="1.0" xmlns="http://www.w3.org/2000/svg"
 width="640.000000pt" height="640.000000pt" viewBox="0 0 640.000000 640.000000"
 preserveAspectRatio="xMidYMid meet">

<g transform="translate(0.000000,640.000000) scale(0.100000,-0.100000)"
fill="#000000" stroke="none">
<path d="M0 5119 l0 -1281 82 6 c99 8 451 30 746 47 l213 13 26 50 c46 92 112
183 178 244 37 35 71 77 80 99 18 46 15 105 -6 130 -25 29 -99 152 -99 164 0
6 -8 23 -19 37 -10 16 -21 54 -25 92 -4 40 -27 125 -61 219 -111 311 -202 668
-240 945 -14 99 -36 217 -49 261 -13 44 -34 119 -46 168 l-23 87 -379 0 -378
0 0 -1281z"/>
<path d="M2001 6263 c1 -76 5 -181 10 -233 4 -52 11 -169 14 -260 6 -181 21
-494 35 -750 5 -91 12 -217 16 -280 3 -63 7 -133 9 -155 3 -37 16 -257 19
-315 1 -14 -2 -34 -5 -46 -12 -35 2 -44 60 -37 l52 6 -5 46 c-3 25 -8 93 -11
151 -20 378 -26 472 -35 531 -5 31 -6 74 -3 96 3 22 0 101 -6 176 -16 190 -26
409 -26 569 0 75 -3 132 -6 127 -3 -6 -9 69 -12 166 -4 97 -4 182 -1 187 4 7
2 8 -4 4 -9 -5 -12 15 -12 73 l0 81 -45 0 -46 0 2 -137z"/>
<path d="M3562 6059 c-68 -12 -125 -41 -151 -78 -20 -28 -30 -32 -121 -44 -14
-2 -29 -5 -33 -5 -4 -1 -12 -12 -17 -24 -7 -18 -9 -19 -9 -5 -1 20 -17 23 -24
5 -3 -8 -6 -5 -6 5 -1 26 -53 19 -61 -8 -3 -11 -11 -21 -18 -23 -8 -1 -11 2
-7 8 13 21 -24 9 -42 -14 -10 -13 -28 -26 -39 -30 -11 -3 -40 -27 -64 -53 -25
-26 -35 -39 -22 -29 27 24 29 13 2 -21 -12 -15 -20 -20 -20 -12 -1 10 -4 9
-14 -3 -7 -10 -18 -18 -23 -18 -6 0 -16 -15 -23 -32 -6 -18 -16 -42 -21 -53
-9 -20 -9 -20 -4 1 5 19 -18 64 -28 54 -2 -3 -7 -31 -9 -63 -3 -36 -1 -53 4
-45 6 8 6 4 2 -12 -5 -14 -9 -45 -10 -70 -2 -58 -2 -56 -16 -72 -7 -7 -20 -26
-27 -43 -8 -16 -25 -44 -38 -62 -13 -18 -22 -38 -21 -45 2 -7 -3 -12 -10 -10
-8 1 -11 -2 -7 -8 9 -15 -17 -80 -31 -80 -7 0 -16 -5 -20 -12 -5 -7 -2 -9 9
-5 11 4 14 2 10 -8 -3 -8 -9 -12 -14 -10 -5 3 -14 -15 -20 -40 -6 -25 -15 -48
-20 -51 -5 -3 -9 -10 -9 -15 0 -6 5 -7 12 -3 6 4 -1 -9 -16 -29 -15 -20 -25
-40 -22 -46 3 -5 -2 -26 -11 -47 -9 -22 -17 -41 -18 -44 -1 -3 -4 -12 -7 -20
-4 -8 -9 -26 -12 -40 -4 -14 -16 -59 -27 -100 -12 -41 -27 -113 -35 -160 -7
-47 -20 -121 -28 -165 -9 -44 -16 -95 -16 -113 0 -18 -5 -42 -10 -52 -6 -11
-12 -59 -15 -107 l-4 -88 28 72 c16 40 32 89 35 110 4 21 18 73 32 116 13 43
24 89 24 102 0 13 6 25 13 28 7 2 12 24 12 58 1 42 4 53 15 51 11 -3 12 -1 3
8 -11 12 -6 41 17 95 5 11 14 38 20 60 13 46 61 149 72 153 4 2 4 10 1 18 -3
9 1 14 12 14 11 0 15 5 12 14 -3 8 1 20 9 26 8 7 14 18 14 25 0 7 7 15 15 19
8 3 15 13 15 21 0 9 4 13 10 10 6 -3 7 1 4 9 -3 9 -1 16 5 16 7 0 14 -7 17
-15 9 -22 27 -18 48 10 10 14 27 25 37 25 27 0 50 11 43 21 -3 5 3 17 12 26
16 17 17 16 10 -10 -4 -17 -2 -27 4 -27 6 0 8 4 5 10 -3 5 6 12 20 16 18 4 25
13 25 30 0 13 4 24 10 24 5 0 7 -7 4 -15 -4 -10 0 -15 11 -15 9 0 13 5 10 10
-3 6 -2 10 4 10 12 0 24 -37 16 -50 -10 -17 -25 -11 -19 8 5 16 5 16 -6 0 -6
-10 -20 -18 -30 -18 -10 0 -22 -5 -26 -12 -5 -8 -2 -9 11 -4 11 4 22 2 27 -6
5 -9 8 -8 8 6 0 15 3 16 15 6 11 -9 15 -9 15 -1 0 7 6 11 13 10 6 -1 37 1 67
5 59 7 117 -4 113 -22 -2 -6 4 -9 12 -6 22 9 18 19 -12 31 l-28 12 29 -6 c20
-4 27 -3 22 6 -12 20 2 12 41 -21 20 -18 33 -26 28 -18 -4 8 4 4 18 -9 15 -14
25 -27 22 -29 -3 -3 14 -14 37 -24 30 -14 43 -15 49 -7 4 8 14 3 30 -15 13
-15 29 -24 37 -21 7 2 11 1 8 -4 -3 -4 4 -17 17 -27 18 -16 19 -16 8 -1 -17
22 -1 23 38 2 28 -14 29 -13 29 11 0 18 -5 23 -17 20 -9 -3 -27 3 -41 14 -14
11 -20 20 -14 20 6 0 17 -7 24 -15 6 -8 22 -13 33 -12 17 1 23 -4 25 -24 3
-25 44 -55 61 -45 4 3 21 -10 39 -29 31 -31 90 -56 75 -31 -4 6 1 5 10 -2 9
-8 21 -11 26 -7 7 4 8 -1 4 -11 -5 -13 -3 -15 7 -9 10 6 12 4 7 -8 -4 -10 -2
-17 4 -17 7 0 9 11 6 26 l-4 25 28 -27 c18 -17 34 -24 45 -20 12 5 15 2 10
-10 -5 -14 -4 -15 9 -4 9 7 14 19 11 26 -8 20 26 4 51 -25 l22 -25 6 27 c8 29
29 36 39 12 3 -8 1 -15 -4 -15 -6 0 -10 -7 -10 -15 0 -11 5 -12 26 -5 36 14
47 12 40 -5 -3 -9 0 -15 9 -15 8 0 30 -9 50 -20 20 -11 42 -20 50 -20 8 0 16
-6 17 -12 3 -26 5 -34 18 -60 7 -16 17 -28 22 -28 4 0 8 -7 8 -15 0 -8 9 -15
20 -15 17 0 18 -3 9 -27 -7 -20 -7 -28 3 -35 22 -13 33 -2 32 31 -2 24 2 31
16 31 10 0 26 3 35 6 13 5 14 9 4 15 -20 12 -8 18 23 12 23 -4 27 -9 22 -28
-3 -13 -1 -26 5 -29 5 -4 8 -13 4 -21 -3 -10 2 -15 17 -15 17 0 20 4 15 20 -5
16 -2 20 18 20 14 0 30 -7 37 -15 7 -8 16 -13 20 -10 5 3 12 1 15 -5 4 -6 15
-8 26 -5 11 4 19 2 19 -4 0 -6 4 -11 10 -11 5 0 7 8 4 18 -5 13 -4 14 4 3 5
-7 15 -10 21 -7 14 9 14 1 -1 -23 -9 -15 -8 -22 5 -36 15 -14 18 -15 23 -1 9
25 30 -2 33 -43 1 -20 6 -40 11 -45 6 -6 10 -17 10 -25 0 -14 -2 -14 -11 -1
-8 11 -9 7 -4 -17 5 -25 3 -33 -8 -33 -17 0 -29 -34 -16 -47 6 -6 3 -21 -6
-39 -11 -21 -14 -47 -10 -96 4 -41 2 -68 -4 -68 -5 0 -12 8 -14 18 -2 9 -2 1
1 -18 3 -19 4 -44 3 -55 -1 -11 -1 -33 -2 -48 0 -15 -4 -25 -10 -22 -5 4 -7
11 -4 16 4 5 2 9 -4 9 -5 0 -12 8 -15 18 -3 11 -4 8 -4 -8 1 -14 -2 -32 -5
-40 -12 -34 -15 -60 -5 -66 5 -3 7 -17 4 -30 -4 -13 -3 -24 2 -24 14 0 72
-136 73 -172 5 -102 -34 -413 -61 -486 -7 -18 -10 -36 -6 -39 3 -3 1 -12 -5
-20 -6 -7 -9 -13 -6 -13 3 0 -3 -25 -14 -57 -10 -31 -19 -66 -19 -79 0 -12 -3
-24 -8 -26 -4 -1 -22 -46 -40 -98 -18 -52 -38 -99 -45 -105 -6 -5 -12 -14 -13
-20 0 -5 -7 -26 -16 -45 -23 -54 -31 -73 -34 -93 -12 -58 -114 -223 -158 -256
-11 -8 -28 -23 -38 -33 -25 -25 -35 -23 -41 9 -7 36 1 47 20 31 14 -11 15 -9
11 19 -3 21 0 34 9 37 7 3 13 15 13 26 0 14 -4 19 -12 14 -8 -5 -9 -2 -5 10 4
10 7 19 7 22 0 2 8 0 18 -3 14 -5 15 -4 6 8 -12 15 -16 35 -15 92 0 20 -4 37
-10 37 -6 0 -8 -4 -4 -9 3 -5 1 -12 -4 -16 -5 -3 -13 1 -18 9 -10 17 -73 32
-73 17 0 -20 -20 -11 -32 14 -8 19 -16 23 -33 19 -13 -3 -26 -1 -30 6 -5 7
-11 8 -19 1 -8 -7 -24 -7 -43 -2 -27 8 -35 5 -54 -15 -19 -20 -29 -23 -58 -18
-20 4 -41 12 -48 18 -7 6 -19 17 -28 24 -8 7 -15 22 -15 33 0 11 -6 22 -14 25
-8 3 -11 15 -8 31 3 18 1 24 -7 19 -10 -7 -33 34 -29 52 1 7 -6 27 -22 67 -5
11 -15 38 -22 60 -7 22 -15 42 -19 45 -3 3 -11 20 -18 38 -8 17 -17 32 -22 32
-5 0 -9 7 -9 15 0 9 -7 29 -15 45 -9 17 -11 30 -5 30 5 0 10 18 10 41 0 37 2
40 23 34 15 -4 18 -4 8 3 -9 7 -12 20 -7 43 4 19 8 43 9 54 1 11 11 24 22 28
15 6 16 10 6 16 -9 6 -10 11 -3 15 6 4 9 13 5 21 -7 21 4 19 29 -5 12 -11 28
-20 35 -20 17 0 17 -27 1 -33 -7 -3 2 -3 20 0 22 4 32 2 32 -7 0 -7 8 -10 20
-7 10 3 21 0 22 -5 2 -5 25 -11 51 -13 43 -3 47 -1 42 15 -4 12 0 20 12 23 10
2 1 4 -20 4 -24 0 -41 -6 -47 -16 -8 -14 -9 -14 -10 2 0 27 -43 65 -92 83 -25
9 -23 27 2 19 31 -10 24 1 -16 24 -45 27 -48 26 -28 -4 10 -16 12 -25 5 -25
-6 0 -14 6 -17 14 -3 9 -13 12 -22 9 -9 -4 -14 -3 -10 2 4 4 2 15 -5 23 -10
13 -6 14 33 9 24 -3 46 -11 48 -16 2 -6 21 -14 42 -17 21 -4 41 -13 44 -20 4
-10 -1 -13 -17 -11 -12 2 -16 2 -9 0 6 -3 12 -8 12 -12 0 -5 34 -16 76 -26 80
-19 98 -22 154 -24 23 -1 30 -4 22 -10 -11 -6 -11 -10 0 -18 19 -15 71 -26 63
-13 -4 6 8 10 32 10 36 -1 37 -1 18 -16 -19 -15 -18 -15 16 -9 23 4 46 2 60
-6 l24 -13 -25 -7 c-14 -5 12 -6 58 -4 49 3 88 9 95 17 15 17 15 44 -1 60 -6
6 -12 17 -12 24 0 7 -6 15 -12 17 -10 4 -10 6 0 6 7 1 25 -13 39 -29 13 -17
30 -30 36 -30 9 0 9 2 0 8 -19 12 -52 110 -39 117 8 3 7 7 -1 11 -7 3 -13 14
-13 24 0 9 -6 33 -14 51 -7 19 -11 41 -9 49 4 12 2 12 -5 2 -15 -22 -72 51
-72 93 0 19 -4 35 -10 35 -5 0 -10 5 -10 11 0 19 -80 88 -95 82 -8 -3 -15 0
-15 6 0 6 -6 11 -13 11 -16 0 -15 44 2 64 16 20 31 21 31 3 0 -19 33 -47 54
-47 9 0 15 4 11 10 -3 5 -12 7 -20 3 -8 -3 -15 -1 -15 5 0 6 14 15 30 21 36
12 43 47 8 36 -13 -3 -27 -6 -33 -6 -23 0 -63 8 -74 15 -8 6 -10 1 -6 -17 5
-17 2 -26 -9 -30 -9 -4 -16 -16 -16 -27 0 -11 -5 -20 -11 -20 -5 0 -8 4 -5 8
9 15 -60 82 -83 82 -12 0 -20 -4 -16 -9 8 -14 -24 -29 -48 -23 -14 4 -18 2
-12 -7 6 -10 0 -11 -25 -6 -24 5 -31 4 -25 -5 5 -8 0 -7 -14 2 -12 7 -19 18
-17 24 3 7 -6 14 -19 16 -17 4 -22 1 -18 -10 6 -14 -12 -32 -32 -32 -5 0 -3 4
5 10 8 5 11 12 8 16 -9 8 -68 -18 -62 -28 3 -4 -2 -5 -11 -2 -10 4 -22 -1 -30
-12 -12 -16 -14 -16 -15 -3 0 9 -12 22 -26 29 -22 12 -27 12 -34 0 -6 -8 -10
-11 -10 -6 0 6 -5 5 -11 -1 -6 -6 -18 -9 -25 -6 -8 3 -14 0 -14 -6 0 -6 -10
-11 -22 -11 -19 0 -20 -2 -8 -10 12 -7 9 -11 -15 -15 -50 -11 -65 -28 -67 -78
-2 -37 -6 -47 -22 -51 -16 -4 -18 -8 -9 -17 14 -14 -5 -39 -23 -32 -7 2 -15 0
-19 -6 -3 -7 2 -11 14 -11 12 0 21 -5 21 -11 0 -5 -4 -7 -10 -4 -5 3 -10 -1
-10 -11 0 -14 -2 -15 -17 -3 -15 13 -16 11 -9 -14 4 -18 3 -26 -3 -23 -14 9
-18 -33 -7 -78 9 -39 -5 -63 -28 -49 -5 4 0 -7 12 -24 14 -20 18 -33 11 -35
-7 -2 -13 -19 -14 -38 -1 -19 -8 -51 -17 -69 -19 -43 -13 -74 10 -45 13 18 14
17 7 -6 -4 -14 -12 -28 -18 -31 -12 -8 1 -32 13 -24 4 3 7 -9 6 -25 -2 -22 4
-34 21 -45 13 -9 23 -23 23 -33 0 -9 9 -32 20 -50 20 -33 28 -102 11 -102 -6
0 -11 15 -13 33 l-3 32 -18 -32 c-10 -18 -25 -33 -35 -33 -10 0 -23 -5 -30
-12 -9 -9 -12 -9 -12 0 0 20 -48 14 -71 -9 -11 -11 -30 -19 -42 -17 -35 4 -64
-22 -63 -58 1 -21 -3 -30 -11 -27 -7 3 -16 -2 -19 -11 -3 -9 -12 -16 -20 -16
-8 0 -14 -5 -14 -10 0 -12 -36 5 -58 27 -7 7 -25 13 -40 13 -22 0 -24 2 -12
11 12 9 10 10 -8 6 -20 -5 -21 -3 -10 11 11 13 11 15 -4 9 -12 -4 -18 -2 -18
8 0 20 -20 19 -50 -2 -24 -17 -25 -17 -10 2 8 11 20 23 25 27 13 10 0 10 -47
-1 -22 -5 -36 -5 -32 0 3 5 -3 9 -13 10 -11 0 -13 3 -5 6 6 2 9 9 6 14 -3 6
-11 5 -20 -2 -11 -9 -14 -9 -14 1 0 7 -7 10 -16 6 -9 -4 -28 1 -41 9 -22 15
-29 15 -70 1 -55 -19 -56 -19 -48 -6 4 6 -1 7 -11 3 -10 -4 -13 -8 -7 -10 13
-5 -9 -54 -32 -73 -8 -7 -12 -17 -9 -22 3 -5 -2 -16 -12 -24 -11 -9 -13 -13
-6 -9 14 7 17 -11 2 -20 -6 -4 -7 -11 -4 -17 4 -5 -4 -24 -16 -41 -18 -23 -19
-29 -7 -24 10 4 17 2 17 -3 0 -6 -5 -10 -11 -10 -8 0 -8 -4 0 -14 10 -11 10
-20 1 -37 -7 -12 -16 -34 -20 -48 -4 -14 -11 -35 -16 -46 -7 -17 -5 -18 8 -8
8 7 19 9 23 5 5 -4 6 0 2 10 -7 19 27 55 38 38 11 -18 26 -1 15 19 -11 21 4
41 32 41 10 0 24 15 34 35 9 19 19 35 23 35 3 0 12 -14 20 -31 8 -19 18 -28
27 -25 8 3 14 1 14 -4 0 -6 7 -10 15 -10 9 0 12 -6 8 -17 -4 -11 -3 -14 5 -9
7 4 12 3 12 -2 0 -11 49 -46 55 -40 3 2 -2 17 -10 32 -8 16 -15 34 -15 41 0 7
-22 34 -49 60 -65 63 -75 101 -26 99 51 -3 54 -4 48 -21 -5 -12 -2 -15 10 -10
10 4 17 2 17 -5 0 -6 3 -9 6 -5 5 5 46 -13 114 -52 49 -27 80 -41 94 -41 9 0
16 -4 16 -8 0 -5 6 -9 13 -9 22 -1 41 -8 54 -20 8 -7 33 -10 62 -8 39 3 53 -1
67 -16 15 -17 15 -19 2 -14 -9 4 -26 2 -37 -5 -12 -6 -21 -7 -21 -2 0 15 -100
15 -100 0 -1 -9 -4 -8 -13 3 -14 19 -55 31 -62 18 -3 -5 -32 -7 -63 -5 -31 2
-46 2 -32 -1 14 -3 32 -11 40 -18 36 -31 149 -83 195 -89 79 -12 95 -17 88
-30 -5 -8 -2 -7 8 1 15 12 99 6 99 -7 0 -5 -9 -6 -20 -3 -12 3 -20 0 -20 -6 0
-7 6 -9 13 -5 9 5 9 4 1 -5 -8 -9 -21 -10 -46 -3 -28 7 -38 6 -56 -8 -22 -18
-35 -17 -107 11 -11 4 -36 10 -56 13 -27 5 -36 3 -36 -8 0 -8 3 -15 6 -14 25
2 41 -4 41 -17 0 -16 16 -20 24 -6 3 5 25 5 48 0 24 -4 62 -8 86 -9 23 0 42
-5 42 -10 0 -6 -6 -10 -12 -9 -7 1 -25 1 -40 0 -27 -1 -27 -2 -10 -19 9 -11
20 -17 24 -15 4 2 9 -1 13 -7 4 -6 11 -8 16 -5 5 4 9 2 9 -4 0 -15 -38 -33
-51 -25 -6 4 -16 0 -21 -7 -7 -10 -11 -11 -14 -2 -4 8 -12 5 -25 -8 -13 -13
-31 -19 -47 -18 -15 2 -33 0 -40 -4 -8 -6 -12 -2 -12 10 0 13 -9 19 -30 20
-21 2 -30 -2 -30 -12 0 -8 -5 -15 -11 -15 -5 0 -7 -5 -4 -10 3 -5 1 -10 -5
-10 -7 0 -10 6 -7 14 7 17 -25 27 -44 14 -11 -8 -10 -9 4 -4 11 3 17 0 17 -9
0 -8 -7 -15 -16 -15 -27 0 3 -28 33 -32 15 -2 28 -9 30 -15 4 -10 -3 -9 -29 1
-59 24 -81 29 -73 16 5 -8 1 -7 -14 2 -16 10 -23 10 -33 0 -17 -17 -33 -15
-18 3 18 22 -1 18 -30 -6 l-25 -20 25 6 c24 6 24 5 6 -9 -11 -9 -15 -16 -9
-16 7 0 14 4 17 9 3 5 14 11 25 14 14 3 18 1 14 -10 -3 -7 -7 -12 -9 -10 -5 5
-84 -70 -84 -79 0 -4 10 2 23 13 12 11 37 30 55 42 l32 23 -11 -25 c-6 -14
-21 -28 -33 -31 -17 -5 -18 -8 -7 -15 11 -7 7 -12 -15 -25 -16 -8 -22 -15 -15
-16 8 0 28 12 43 27 15 15 36 28 45 29 11 2 4 -10 -20 -32 -44 -42 -48 -53 -8
-24 l30 20 -9 -31 c-5 -18 -19 -43 -32 -56 -14 -15 -17 -23 -8 -23 9 0 7 -5
-6 -15 -18 -14 -17 -14 9 -3 19 8 24 14 15 19 -16 10 16 24 37 16 8 -4 23 5
35 20 11 14 23 23 27 20 3 -4 3 -7 -2 -7 -4 0 -2 -7 5 -15 11 -13 10 -14 -1
-10 -10 4 -19 -6 -27 -27 l-12 -33 19 24 c25 33 41 20 31 -24 -4 -20 -13 -41
-19 -49 -6 -7 -9 -16 -6 -20 3 -3 0 -3 -5 2 -6 5 -6 20 -1 42 8 29 8 32 -2 16
-24 -38 -49 -58 -59 -48 -7 7 -6 16 1 29 10 16 11 15 5 -7 -4 -17 -3 -22 4
-15 13 12 24 65 14 65 -4 0 -16 -14 -27 -30 -11 -16 -26 -30 -32 -30 -7 0 -16
0 -20 -1 -4 0 -9 5 -11 13 -2 9 -1 10 5 2 5 -8 13 -5 25 11 17 23 17 24 -5 21
-13 -1 -28 -6 -35 -10 -7 -4 -12 -4 -12 0 0 3 -6 1 -14 -5 -11 -9 -16 -9 -22
0 -4 7 -3 9 4 5 6 -3 13 -2 17 4 4 6 10 8 14 6 4 -3 12 4 19 14 25 40 -37 33
-63 -7 -9 -14 -19 -22 -22 -19 -3 3 -12 -2 -20 -12 -12 -16 -13 -15 -6 3 3 11
11 26 16 33 5 7 7 15 4 19 -4 3 -1 13 6 22 12 16 8 14 -66 -34 -13 -8 -27 -12
-31 -8 -4 5 -6 1 -4 -7 2 -8 -4 -15 -12 -15 -8 0 -18 -4 -22 -10 -12 -16 -9
14 3 36 5 11 14 17 19 14 5 -3 12 0 16 6 4 8 3 9 -4 5 -7 -4 -12 -3 -12 3 0 5
8 12 18 14 15 4 15 5 0 6 -9 0 -20 -4 -23 -9 -11 -17 -25 -11 -18 8 6 14 4 15
-9 4 -24 -19 -33 26 -10 52 16 20 16 20 -1 7 -14 -11 -20 -12 -30 -2 -9 10 -8
15 5 25 15 11 15 13 -3 24 -10 7 -19 18 -19 25 0 9 2 9 9 -1 6 -10 10 -10 20
2 14 16 -1 31 -21 21 -7 -4 -3 2 8 12 l22 20 -22 13 c-11 8 -25 13 -30 12 -5
-2 -4 4 4 12 7 9 19 16 26 16 8 0 14 5 14 11 0 6 -7 9 -15 5 -10 -4 -15 1 -15
14 0 11 5 20 10 20 6 0 10 4 10 10 0 5 -7 7 -15 4 -19 -8 -19 0 1 20 14 15 14
16 -5 16 -35 0 -73 -19 -65 -32 5 -10 4 -10 -5 -2 -16 15 -4 41 22 49 13 3 17
8 10 11 -7 3 -22 0 -35 -6 -14 -7 -8 2 16 25 22 19 36 38 33 42 -4 3 -21 -7
-38 -23 -18 -16 -30 -24 -28 -17 5 13 100 93 112 93 4 0 5 4 2 10 -3 6 -13 10
-21 10 -8 0 -13 -4 -9 -9 3 -6 -3 -15 -14 -20 -28 -16 -35 -13 -20 6 10 12 10
14 1 9 -7 -4 -15 -1 -18 8 -5 14 -8 14 -21 1 -8 -9 -19 -12 -25 -9 -6 4 -5 9
3 15 11 6 10 9 -4 15 -10 4 -16 12 -14 18 7 18 -19 61 -27 47 -13 -20 -36 7
-36 41 0 16 -4 27 -9 24 -7 -4 -28 52 -59 154 -3 11 -7 8 -13 -9 -5 -13 -12
-21 -16 -18 -3 4 1 17 10 30 13 20 14 37 8 88 -5 35 -9 120 -10 189 -2 75 -7
127 -13 131 -6 4 -7 12 -4 18 13 20 16 54 6 70 -10 17 -16 -38 -11 -116 3 -51
-8 -56 -112 -48 -61 5 -76 3 -87 -10 -11 -13 -11 -21 -2 -35 21 -34 33 -103
32 -180 -1 -41 -3 -76 -5 -78 -3 -3 -21 46 -49 133 l-15 50 4 -55 c4 -63 18
-141 38 -220 8 -30 20 -82 26 -115 7 -33 17 -70 22 -83 5 -13 9 -33 9 -45 0
-12 6 -51 14 -87 36 -163 68 -358 70 -430 l2 -78 -61 1 c-33 0 -106 -3 -163
-7 -102 -8 -103 -7 -91 12 9 14 10 24 2 34 -5 7 -11 38 -12 68 -1 30 -3 73 -5
95 -1 22 0 45 3 50 3 6 6 25 8 42 2 32 1 33 -40 33 -43 0 -42 16 3 22 24 3 25
5 24 82 -1 43 -6 81 -12 85 -5 3 -10 25 -10 49 -1 24 -6 50 -12 57 -8 10 -8
19 0 35 9 17 8 25 -5 40 -19 21 -38 90 -25 90 5 0 2 14 -7 31 -8 16 -13 39
-10 50 8 30 -10 32 -21 2 -7 -18 -11 -22 -11 -10 -1 9 -8 17 -16 17 -10 0 -15
-10 -15 -34 0 -24 -5 -36 -18 -40 -15 -5 -17 -17 -15 -83 2 -43 5 -148 6 -233
l3 -155 30 -6 c16 -4 22 -7 13 -8 -46 -3 -71 -100 -43 -167 9 -21 25 -47 35
-57 10 -10 19 -27 19 -37 0 -11 4 -20 8 -20 4 0 13 -13 19 -29 l11 -29 -112
-28 c-61 -15 -135 -35 -163 -45 -29 -10 -53 -16 -53 -13 0 2 -17 -4 -38 -14
-20 -11 -59 -25 -87 -31 -28 -7 -72 -29 -100 -50 -60 -46 -107 -72 -88 -50 6
8 11 25 11 39 -3 138 26 1139 37 1285 8 105 20 260 26 345 6 85 12 160 12 165
2 11 -164 12 -753 6 -190 -2 -360 -5 -378 -8 l-32 -5 0 -918 c0 -725 3 -920
13 -924 9 -5 9 -7 0 -12 -10 -4 -13 -170 -13 -780 0 -514 3 -773 10 -769 5 3
10 1 10 -4 0 -7 27 -11 70 -11 75 0 77 2 71 62 -2 18 21 32 70 42 48 10 42 66
-7 66 -29 0 -47 24 -42 55 3 13 1 26 -3 27 -5 2 -5 9 0 17 7 11 13 10 33 -3
15 -10 59 -18 117 -23 55 -3 95 -11 97 -18 6 -15 -107 -220 -115 -208 -7 11
-66 16 -92 8 -66 -21 33 -25 656 -25 l674 0 7 35 c4 25 12 35 24 35 12 0 26
17 40 48 12 26 37 77 56 113 22 44 34 81 34 108 0 23 4 49 9 59 5 9 37 78 70
152 34 74 68 146 75 160 8 14 33 59 57 100 57 101 62 152 21 211 -16 24 -44
58 -62 74 -17 17 -42 50 -55 75 -13 25 -40 66 -62 92 -21 26 -49 68 -63 93
-25 46 -25 47 -6 61 11 8 34 14 50 14 17 0 96 21 176 46 132 42 192 67 390
165 54 26 62 28 46 11 -10 -12 -27 -24 -37 -27 -11 -4 -19 -11 -19 -16 0 -6 5
-7 12 -3 7 5 8 3 4 -5 -5 -7 -15 -10 -25 -6 -12 5 -13 3 -4 -6 9 -9 8 -17 -4
-35 -8 -13 -19 -21 -24 -18 -5 3 -6 -2 -3 -10 4 -10 -6 -22 -28 -36 -25 -15
-28 -20 -14 -20 19 0 19 0 0 -17 -11 -10 -28 -22 -37 -28 -14 -8 -18 -29 -22
-105 -2 -52 -8 -106 -14 -120 -8 -20 -9 -14 -5 30 4 41 3 51 -5 40 -10 -14 -6
-213 6 -264 2 -12 8 -111 12 -221 6 -170 5 -211 -10 -273 -9 -40 -18 -74 -20
-76 -2 -1 -29 -17 -59 -35 -102 -61 -320 -239 -425 -345 l-49 -51 2363 -3
c1301 -1 2366 0 2368 2 17 17 -106 146 -138 146 -11 0 -89 77 -89 88 0 7 -72
81 -140 144 -19 18 -78 65 -131 105 -53 40 -113 93 -135 120 -59 73 -93 100
-163 134 -36 18 -95 51 -132 75 -37 24 -70 44 -73 44 -10 0 -89 52 -116 76
-14 13 -50 34 -80 49 -30 14 -62 30 -70 35 -8 5 -44 26 -79 47 -35 20 -96 65
-135 101 -39 35 -92 76 -118 91 -27 15 -45 31 -41 34 3 4 -1 7 -10 7 -9 0 -17
7 -17 16 0 11 -6 15 -20 11 -11 -3 -23 -1 -26 4 -3 5 3 9 12 9 16 0 16 1 -2
16 -14 12 -15 14 -3 11 18 -6 17 20 -1 118 -6 31 -8 34 -9 13 -1 -16 -4 -28
-8 -28 -5 0 -9 35 -9 78 -2 100 -35 205 -78 248 -34 33 -80 47 -270 83 -60 12
-111 23 -114 25 -2 3 -1 21 2 41 7 35 27 62 107 145 20 20 51 56 68 80 17 24
31 39 31 34 0 -10 12 8 54 87 16 30 39 64 52 76 13 12 26 34 30 50 4 15 13 34
21 41 7 7 13 24 13 36 0 31 22 48 53 41 16 -4 42 1 70 13 43 19 69 42 48 42
-6 0 -11 -4 -11 -8 0 -5 -6 -9 -14 -9 -23 0 -6 35 22 42 18 4 22 9 13 14 -9 6
-10 11 -2 15 6 4 14 0 17 -8 8 -21 20 -20 28 1 4 10 4 14 0 10 -9 -9 -54 32
-54 50 0 7 7 13 16 13 8 0 13 4 10 9 -4 5 -1 11 6 13 6 2 9 12 5 21 -4 10 -12
14 -22 11 -20 -8 -19 0 3 22 9 10 18 20 18 23 8 33 20 50 40 60 25 11 34 -2
10 -16 -21 -12 -35 -74 -23 -100 9 -22 11 -21 27 15 44 92 100 233 100 251 0
7 5 9 10 6 6 -3 10 2 10 12 1 18 30 65 30 48 0 -5 13 12 29 37 16 25 34 49 40
52 6 4 21 26 32 48 16 32 20 55 17 109 -2 38 -1 69 3 69 10 0 2 94 -10 98 -6
2 -9 8 -5 13 3 5 -2 9 -10 9 -9 0 -16 6 -16 13 0 8 -4 7 -11 -3 -9 -12 -10
-12 -5 3 3 10 6 22 6 25 0 4 5 0 10 -8 16 -25 41 18 36 60 -4 25 -3 31 4 20
14 -22 12 2 -4 47 -13 38 -7 79 8 54 4 -6 11 -11 15 -11 12 0 7 44 -7 59 -7 7
-11 20 -8 28 3 8 6 23 6 34 0 10 4 19 9 19 5 0 5 -15 1 -35 -6 -27 -5 -35 6
-35 9 0 14 11 14 30 0 17 9 39 22 52 15 15 17 20 5 15 -54 -22 -53 -22 -38 -4
9 12 10 17 2 17 -7 0 -10 4 -6 9 3 6 8 31 10 57 3 28 12 52 23 60 10 8 12 13
5 14 -7 0 -13 4 -13 10 0 5 7 7 15 4 20 -8 19 -28 -1 -49 -10 -10 -14 -24 -10
-39 4 -15 1 -26 -6 -28 -8 -3 -8 -9 -1 -23 9 -16 12 -13 24 21 7 21 12 47 10
56 -1 10 3 26 8 37 9 16 7 23 -11 35 -12 9 -17 16 -10 16 6 0 12 7 12 15 0 8
-6 15 -12 15 -10 0 -9 3 1 9 11 7 11 9 0 14 -8 3 -9 6 -2 6 7 1 9 12 7 31 -3
17 -1 30 5 30 6 0 8 -8 4 -17 -5 -15 -3 -16 7 -6 11 10 11 15 0 28 -10 12 -10
21 1 47 7 17 13 47 12 65 0 25 3 33 14 29 11 -4 11 -1 3 14 -8 14 -8 20 0 20
7 0 8 6 1 19 -7 12 -7 30 -1 52 6 19 10 35 10 36 0 2 -8 3 -17 3 -15 0 -14 2
3 15 11 8 14 15 7 15 -7 0 -13 5 -13 11 0 6 7 9 15 5 15 -6 20 5 8 18 -12 12
-10 48 3 53 11 4 10 10 -3 29 -14 22 -14 24 1 18 9 -3 16 -1 16 5 0 6 -4 11
-10 11 -5 0 -10 5 -10 10 0 6 7 10 15 10 20 0 19 10 -2 26 -11 8 -13 13 -5 14
6 0 12 7 12 15 0 8 -6 15 -12 15 -8 0 -5 7 6 15 14 11 16 15 5 15 -12 0 -12 2
1 11 12 8 12 12 2 16 -10 4 -10 8 -2 18 9 10 7 18 -7 32 -11 11 -17 25 -15 31
2 7 -2 10 -12 6 -19 -7 -20 0 -6 27 12 21 -6 27 -28 9 -9 -7 -9 -7 -2 2 6 7
10 20 10 31 0 10 -4 15 -10 12 -5 -3 -10 1 -10 9 0 9 -7 16 -16 16 -11 0 -14
5 -10 16 5 12 2 15 -10 10 -15 -6 -15 -4 -2 16 14 21 14 25 -8 40 -16 13 -24
14 -27 5 -2 -6 -8 -9 -12 -5 -4 4 4 32 19 61 14 30 26 61 26 70 0 25 -22 67
-31 61 -5 -3 -9 -1 -9 5 0 11 38 83 49 91 15 12 62 112 58 123 -3 7 -10 -3
-17 -20 -7 -18 -16 -34 -21 -34 -5 -1 -14 -2 -19 -3 -6 0 -15 -8 -20 -16 -8
-13 -10 -13 -10 2 0 9 4 19 9 22 12 8 -13 156 -33 195 -9 17 -14 37 -10 43 4
6 3 9 -2 7 -5 -3 -21 -11 -37 -19 -21 -10 -30 -11 -39 -2 -14 14 -42 16 -34 3
3 -4 -13 -8 -36 -8 -39 0 -48 5 -113 71 -61 61 -84 77 -170 115 -55 24 -113
55 -129 68 -42 35 -118 72 -176 84 -62 13 -164 -2 -227 -33 -37 -19 -47 -20
-81 -10 -22 7 -48 12 -59 12 -10 0 -55 18 -99 40 -88 45 -153 55 -242 39z
m173 -29 c3 -6 -1 -7 -9 -4 -18 7 -21 14 -7 14 6 0 13 -4 16 -10z m-75 -52 c0
-12 -28 3 -34 18 -4 11 -2 12 14 1 11 -6 20 -15 20 -19z m105 22 c3 -5 1 -10
-4 -10 -6 0 -11 5 -11 10 0 6 2 10 4 10 3 0 8 -4 11 -10z m-175 -40 c0 -11 -2
-20 -4 -20 -2 0 -6 9 -9 20 -3 11 -1 20 4 20 5 0 9 -9 9 -20z m720 -2 c28 -13
39 -23 29 -25 -9 -2 -38 7 -65 21 -61 31 -29 35 36 4z m-616 -27 c-6 -6 -24
19 -24 34 1 6 7 1 15 -9 8 -11 12 -22 9 -25z m-367 -33 c-3 -7 -5 -2 -5 12 0
14 2 19 5 13 2 -7 2 -19 0 -25z m78 12 c7 -12 -2 -12 -30 0 -19 8 -19 9 2 9
12 1 25 -3 28 -9z m958 3 c-7 -2 -21 -2 -30 0 -10 3 -4 5 12 5 17 0 24 -2 18
-5z m-1335 -107 c-7 -8 -16 -12 -20 -10 -3 2 -8 -2 -11 -8 -2 -7 -8 -10 -12
-5 -10 8 23 36 43 37 10 0 10 -3 0 -14z m1589 -38 c-3 -8 -6 -5 -6 6 -1 11 2
17 5 13 3 -3 4 -12 1 -19z m68 -20 c14 -6 25 -15 25 -20 0 -8 -17 -1 -50 22
-20 13 -7 13 25 -2z m-718 -230 c-3 -8 -6 -5 -6 6 -1 11 2 17 5 13 3 -3 4 -12
1 -19z m-180 -40 c-3 -8 -6 -5 -6 6 -1 11 2 17 5 13 3 -3 4 -12 1 -19z m190
-55 c-3 -10 -5 -4 -5 12 0 17 2 24 5 18 2 -7 2 -21 0 -30z m0 -45 c-3 -8 -6
-5 -6 6 -1 11 2 17 5 13 3 -3 4 -12 1 -19z m-877 -282 c-10 -5 -27 -5 -37 -1
-17 7 -17 8 2 15 15 6 16 9 4 9 -9 1 -16 7 -16 15 0 10 9 9 33 -8 31 -19 32
-22 14 -30z m51 27 c13 -16 12 -17 -3 -4 -10 7 -18 15 -18 17 0 8 8 3 21 -13z
m236 -79 c-3 -3 -12 -4 -19 -1 -8 3 -5 6 6 6 11 1 17 -2 13 -5z m23 -34 c0 -5
-4 -10 -10 -10 -5 0 -10 5 -10 10 0 6 5 10 10 10 6 0 10 -4 10 -10z m315 -128
c-3 -3 -16 5 -28 17 l-22 23 28 -17 c15 -10 25 -20 22 -23z m40 -32 c3 -5 -1
-10 -10 -10 -9 0 -13 5 -10 10 3 6 8 10 10 10 2 0 7 -4 10 -10z m465 -102 c0
-6 -6 -5 -15 2 -8 7 -15 14 -15 16 0 2 7 1 15 -2 8 -4 15 -11 15 -16z m150
-163 c0 -10 -10 -15 -30 -15 -20 0 -30 5 -30 15 0 10 10 15 30 15 20 0 30 -5
30 -15z m209 -34 c7 -5 11 -14 7 -19 -9 -15 -36 -4 -36 14 0 16 9 18 29 5z
m508 -583 c-3 -8 -6 -5 -6 6 -1 11 2 17 5 13 3 -3 4 -12 1 -19z m-377 -34 c0
-8 -4 -12 -10 -9 -5 3 -10 10 -10 16 0 5 5 9 10 9 6 0 10 -7 10 -16z m-655
-95 c11 -17 -1 -21 -15 -4 -8 9 -8 15 -2 15 6 0 14 -5 17 -11z m975 -79 c0 -5
-4 -10 -10 -10 -5 0 -10 5 -10 10 0 6 5 10 10 10 6 0 10 -4 10 -10z m-33 -92
c-3 -7 -5 -2 -5 12 0 14 2 19 5 13 2 -7 2 -19 0 -25z m-26 -71 c-10 -9 -11 -8
-5 6 3 10 9 15 12 12 3 -3 0 -11 -7 -18z m-1003 -6 c53 -27 72 -33 86 -28 9 4
16 2 16 -3 0 -6 -6 -10 -12 -10 -7 0 -5 -5 5 -11 9 -6 15 -15 11 -21 -4 -6
-10 -5 -15 3 -7 11 -9 10 -9 -3 0 -10 -8 -18 -17 -18 -16 0 -16 -2 -3 -11 12
-9 12 -10 -3 -5 -10 3 -24 6 -30 6 -7 0 -6 5 3 11 12 9 11 10 -7 6 -13 -3 -23
-2 -23 2 0 4 -10 7 -22 8 -12 1 -50 16 -85 33 -55 27 -62 34 -51 47 10 12 25
14 76 9 35 -4 71 -11 80 -15z m974 -63 c-7 -7 -12 -8 -12 -2 0 6 3 14 7 17 3
4 9 5 12 2 2 -3 -1 -11 -7 -17z m-1149 -33 c-4 -23 0 -43 11 -60 21 -32 13
-32 -40 2 -67 43 -69 79 -6 86 21 2 38 4 39 5 1 1 -1 -14 -4 -33z m67 10 c0
-8 -9 -15 -20 -15 -13 0 -18 5 -14 15 4 8 12 15 20 15 8 0 14 -7 14 -15z
m1087 -27 c-3 -8 -6 -5 -6 6 -1 11 2 17 5 13 3 -3 4 -12 1 -19z m-1547 8 c0
-3 -4 -8 -10 -11 -5 -3 -10 -1 -10 4 0 6 5 11 10 11 6 0 10 -2 10 -4z m229
-45 c7 -5 9 -11 5 -14 -5 -3 -15 1 -22 9 -14 16 -5 18 17 5z m1292 -14 c-10
-9 -11 -8 -5 6 3 10 9 15 12 12 3 -3 0 -11 -7 -18z m-724 -9 c-3 -8 -6 -5 -6
6 -1 11 2 17 5 13 3 -3 4 -12 1 -19z m140 -44 c-3 -3 -12 -4 -19 -1 -8 3 -5 6
6 6 11 1 17 -2 13 -5z m558 -4 c3 -5 -1 -10 -10 -10 -9 0 -13 5 -10 10 3 6 8
10 10 10 2 0 7 -4 10 -10z m-14 -73 c-5 -18 -17 -74 -25 -126 -9 -52 -18 -97
-21 -99 -11 -12 -13 6 -5 43 5 22 7 48 4 58 -3 9 -2 17 3 17 4 0 9 19 11 42 1
23 4 59 6 80 2 21 0 38 -6 38 -5 0 -7 4 -3 10 3 5 15 0 26 -11 17 -17 19 -25
10 -52z m-991 53 c8 -5 11 -10 5 -10 -5 0 -17 5 -25 10 -8 5 -10 10 -5 10 6 0
17 -5 25 -10z m80 -4 c0 -3 -4 -8 -10 -11 -5 -3 -10 -1 -10 4 0 6 5 11 10 11
6 0 10 -2 10 -4z m870 -12 c0 -5 -82 -106 -113 -139 -6 -6 -7 -1 -2 15 3 14 7
33 6 43 0 12 6 16 17 13 11 -3 27 8 47 34 28 36 45 49 45 34z m-735 -54 c3 -5
1 -10 -4 -10 -6 0 -11 5 -11 10 0 6 2 10 4 10 3 0 8 -4 11 -10z m-210 -10 c3
-5 2 -10 -4 -10 -5 0 -13 5 -16 10 -3 6 -2 10 4 10 5 0 13 -4 16 -10z m-538
-52 c-3 -8 -6 -5 -6 6 -1 11 2 17 5 13 3 -3 4 -12 1 -19z m953 12 c0 -5 -5
-10 -11 -10 -5 0 -7 5 -4 10 3 6 8 10 11 10 2 0 4 -4 4 -10z m504 -29 c3 -5
-1 -12 -10 -15 -22 -9 -24 -8 -24 9 0 16 25 21 34 6z m2 -203 c-8 -38 -12 -45
-14 -27 -3 23 12 79 21 79 2 0 -1 -24 -7 -52z m-119 -24 c-6 -51 -37 -98 -37
-56 0 15 4 21 12 16 7 -4 8 -3 4 4 -9 15 4 82 16 82 5 0 7 -20 5 -46z m91 -75
c-6 -16 -12 -29 -13 -27 -6 6 8 58 16 58 4 0 3 -14 -3 -31z m-1279 -36 c7 -16
8 -29 3 -32 -5 -3 -12 -15 -14 -26 -2 -12 -10 -18 -19 -16 -8 2 -21 4 -30 5
-15 0 -15 2 0 23 9 12 23 23 31 23 11 0 11 3 2 12 -16 16 -15 38 1 38 8 0 19
-12 26 -27z m11 -87 c0 -3 -4 -8 -10 -11 -5 -3 -10 -1 -10 4 0 6 5 11 10 11 6
0 10 -2 10 -4z m-760 -26 c0 -5 -8 -10 -17 -10 -15 0 -16 2 -3 10 19 12 20 12
20 0z m-742 -51 c2 -18 6 -36 11 -39 10 -6 10 -40 0 -40 -10 0 -29 66 -29 98
0 35 15 18 18 -19z m41 -22 c6 -8 8 -17 4 -20 -7 -8 -33 11 -33 24 0 13 16 11
29 -4z m3 -159 c-7 -30 -19 -20 -26 20 -10 60 -6 69 13 32 9 -19 15 -43 13
-52z m468 48 c0 -2 -8 -10 -17 -17 -16 -13 -17 -12 -4 4 13 16 21 21 21 13z
m1210 -46 c0 -5 -5 -10 -11 -10 -5 0 -7 5 -4 10 3 6 8 10 11 10 2 0 4 -4 4
-10z m477 -40 c1 -11 -2 -20 -8 -20 -5 0 -9 6 -9 14 0 8 -6 17 -12 19 -7 3 -4
6 7 6 14 1 21 -6 22 -19z m-2122 -136 c2 -36 1 -63 -3 -59 -9 9 -30 144 -23
150 11 11 22 -27 26 -91z m1840 70 c14 -15 25 -30 25 -34 0 -4 12 -11 28 -15
l27 -8 -25 -7 c-14 -3 -26 -3 -28 2 -2 4 -10 8 -18 8 -13 0 -18 -12 -15 -32 0
-5 -3 -8 -9 -8 -5 0 -10 -18 -10 -40 0 -36 2 -40 23 -37 12 2 17 2 10 0 -6 -2
-21 -23 -32 -45 -19 -40 -22 -42 -71 -44 -41 -2 -50 0 -50 14 0 13 -5 11 -20
-8 -10 -14 -21 -34 -23 -45 -3 -15 -5 -13 -6 7 0 15 4 30 9 33 15 9 12 35 -4
35 -12 0 -12 6 -3 29 6 17 14 28 18 25 4 -2 9 1 12 8 2 7 2 2 0 -12 -3 -14 -9
-27 -14 -28 -11 -4 -2 -22 12 -22 5 0 9 9 9 19 0 11 5 21 12 23 6 2 11 18 11
36 0 18 4 29 10 25 6 -4 8 3 5 15 -4 12 -3 20 2 17 9 -6 30 43 33 76 2 46 45
53 82 13z m-1549 -12 c-18 -16 -18 -16 -6 6 6 13 14 21 18 18 3 -4 -2 -14 -12
-24z m1641 -2 c13 0 23 -5 23 -11 0 -6 -7 -8 -16 -5 -9 3 -24 6 -35 6 -11 0
-19 7 -19 17 0 13 3 14 12 5 7 -7 22 -12 35 -12z m183 -60 c0 -5 -4 -10 -10
-10 -5 0 -10 5 -10 10 0 6 5 10 10 10 6 0 10 -4 10 -10z m-150 -40 c0 -5 -4
-10 -10 -10 -5 0 -10 5 -10 10 0 6 5 10 10 10 6 0 10 -4 10 -10z m100 0 c0 -5
-7 -10 -16 -10 -8 0 -12 5 -9 10 3 6 10 10 16 10 5 0 9 -4 9 -10z m-1829 -37
c-12 -20 -14 -14 -5 12 4 9 9 14 11 11 3 -2 0 -13 -6 -23z m942 -10 c-7 -17
-25 -12 -31 8 -3 11 -2 11 7 -1 9 -12 11 -10 11 10 0 19 3 21 9 11 5 -8 7 -20
4 -28z m390 -4 c-3 -12 -9 -17 -15 -11 -10 10 0 44 12 37 5 -3 6 -14 3 -26z
m312 21 c3 -5 2 -10 -4 -10 -5 0 -13 5 -16 10 -3 6 -2 10 4 10 5 0 13 -4 16
-10z m-335 -47 c0 -8 5 -11 10 -8 14 8 13 -8 -1 -22 -7 -7 -8 -19 -4 -30 5
-10 7 -23 6 -30 -1 -6 3 -14 9 -18 5 -3 10 -14 10 -23 -1 -12 -5 -10 -15 8
-14 24 -14 24 -15 3 0 -12 -5 -25 -10 -28 -6 -4 -8 -10 -5 -15 8 -13 -6 -40
-21 -40 -7 0 -16 -11 -20 -25 -5 -20 -9 -23 -19 -15 -9 8 -15 8 -20 0 -3 -5
-1 -10 5 -10 6 0 8 -5 5 -10 -4 -6 -1 -19 6 -28 12 -15 11 -15 -7 1 -13 10
-28 15 -38 11 -10 -4 -13 -10 -8 -13 5 -3 12 -16 16 -27 6 -19 3 -21 -19 -16
-20 3 -24 1 -19 -12 8 -21 -34 -65 -45 -48 -4 7 -11 4 -19 -8 -8 -13 -9 -20
-1 -20 5 0 8 -4 5 -9 -3 -4 -17 -6 -31 -3 -20 3 -25 0 -25 -16 0 -11 -7 -22
-15 -26 -8 -3 -15 -1 -15 4 0 6 -5 10 -11 10 -5 0 -8 -4 -5 -9 3 -5 -5 -8 -17
-7 -22 1 -100 70 -90 79 2 2 -3 10 -12 17 -8 7 -15 19 -15 28 0 11 8 13 35 9
27 -5 35 -2 35 10 0 12 3 13 13 5 10 -8 20 -5 42 13 15 14 36 25 47 25 10 0
18 7 18 15 0 8 5 15 11 15 17 0 116 50 129 65 6 8 9 19 6 24 -4 5 -2 12 4 16
5 3 10 2 10 -3 0 -5 7 -9 15 -9 8 0 15 7 15 14 0 8 4 12 9 9 5 -3 12 1 15 10
3 9 12 14 20 11 17 -7 31 52 16 67 -8 8 -9 5 -4 -9 7 -18 6 -19 -11 -5 -14 11
-17 11 -11 1 9 -14 -8 -31 -33 -31 -10 0 -11 3 -2 14 9 10 9 16 1 21 -15 9
-50 -23 -43 -41 3 -8 1 -14 -5 -14 -5 0 -10 15 -10 34 0 28 4 36 22 38 11 2
20 8 19 13 -1 6 6 21 16 33 22 29 51 20 51 -16 0 -19 3 -23 11 -15 12 12 -4
53 -22 53 -6 0 -7 5 -4 10 9 14 35 -7 35 -27z m495 17 c-6 -10 -45 -1 -45 10
0 4 11 5 25 2 14 -2 23 -8 20 -12z m53 -16 c7 -14 8 -23 3 -19 -5 3 -13 1 -16
-5 -5 -8 -11 -8 -19 -1 -7 6 -16 8 -20 4 -4 -4 -4 0 0 10 5 13 10 15 19 7 9
-8 15 -8 20 0 3 5 1 10 -4 10 -6 0 -11 5 -11 10 0 19 17 10 28 -16z m-1748 6
c0 -5 -2 -10 -4 -10 -3 0 -8 5 -11 10 -3 6 -1 10 4 10 6 0 11 -4 11 -10z
m-311 -9 c9 -6 10 -11 2 -15 -13 -8 -31 1 -31 15 0 11 11 11 29 0z m206 -21
c-5 -21 -1 -43 11 -68 10 -20 18 -51 18 -69 1 -17 4 -29 9 -26 12 7 8 -12 -5
-26 -11 -10 -10 -11 5 -6 30 12 19 -14 -15 -35 -24 -15 -34 -16 -40 -7 -13 20
-10 241 4 255 18 18 20 15 13 -18z m1762 13 c-4 -3 -2 -12 4 -20 9 -10 7 -13
-10 -13 -14 0 -21 6 -21 20 0 12 7 20 17 20 9 0 13 -3 10 -7z m-1107 -12 c0
-6 -4 -13 -10 -16 -5 -3 -10 1 -10 9 0 9 5 16 10 16 6 0 10 -4 10 -9z m940
-11 c0 -5 -5 -10 -11 -10 -5 0 -7 5 -4 10 3 6 8 10 11 10 2 0 4 -4 4 -10z
m220 -26 c0 -8 -19 -13 -24 -6 -3 5 1 9 9 9 8 0 15 -2 15 -3z m-377 -44 c-3
-11 -7 -20 -9 -20 -2 0 -4 9 -4 20 0 11 4 20 9 20 5 0 7 -9 4 -20z m-353 -90
c0 -5 -5 -10 -11 -10 -5 0 -7 5 -4 10 3 6 8 10 11 10 2 0 4 -4 4 -10z m-2865
-36 c10 -4 13 -9 6 -13 -19 -12 0 -51 24 -51 47 0 51 -7 47 -70 -4 -53 -2 -60
14 -61 17 -1 17 -2 2 -6 -20 -5 -24 -39 -6 -45 17 -6 19 -38 2 -38 -8 0 -14
-4 -14 -10 0 -5 6 -10 13 -10 8 0 7 -4 -3 -10 -11 -7 -3 -10 30 -10 37 -1 42
-3 27 -11 -10 -6 -29 -8 -43 -5 -17 5 -24 2 -24 -9 0 -11 11 -15 40 -15 29 0
40 -4 40 -15 0 -8 -4 -15 -10 -15 -6 0 -10 -33 -10 -80 0 -57 4 -80 13 -80 25
0 -18 -20 -45 -20 -18 0 -28 -5 -28 -15 0 -8 7 -15 15 -15 12 0 15 -17 15 -95
0 -55 -4 -95 -10 -95 -5 0 -7 -7 -4 -15 4 -8 1 -15 -5 -15 -7 0 -11 -24 -11
-65 0 -60 -9 -80 -25 -55 -3 5 -18 10 -33 10 l-27 0 27 -23 c25 -22 26 -24 9
-46 -15 -19 -23 -22 -54 -16 -27 5 -37 12 -37 26 0 11 -4 19 -10 19 -5 0 -10
-4 -10 -10 0 -5 -9 -10 -20 -10 -14 0 -20 -7 -20 -21 0 -17 5 -20 21 -16 13 3
18 2 13 -3 -9 -8 -61 -14 -99 -10 -17 2 -16 3 5 10 21 7 19 8 -17 9 -32 1 -43
5 -43 17 0 21 -34 14 -38 -9 -2 -11 3 -17 13 -17 14 0 15 -3 6 -14 -17 -20 4
-30 56 -27 26 1 43 -2 43 -8 0 -7 -29 -11 -79 -11 -54 0 -82 -4 -90 -14 -14
-16 -4 -47 12 -40 7 2 18 0 26 -5 12 -8 12 -12 2 -24 -8 -10 -9 -17 -1 -22 15
-10 12 -25 -7 -32 -10 -4 -26 -15 -35 -26 -18 -20 -18 -20 -63 21 -13 12 -15
9 -16 -15 l-1 -28 -9 30 c-5 17 -7 42 -5 57 3 15 1 30 -4 33 -6 3 -10 25 -10
48 0 23 -4 48 -9 56 -5 8 -6 24 -1 35 4 13 3 25 -5 31 -15 12 -27 95 -14 95 5
0 9 -9 9 -20 0 -11 5 -20 10 -20 11 0 2 53 -9 58 -3 1 -11 6 -17 10 -14 9 -26
132 -12 132 5 0 6 5 3 10 -4 6 -4 18 -1 26 5 12 10 13 26 4 26 -14 54 5 44 29
-4 9 -6 24 -6 34 1 22 -7 22 -29 -4 -21 -25 -32 -20 -53 23 -20 39 -20 52 -1
68 10 9 15 9 15 1 0 -6 11 -11 25 -11 18 0 25 -5 25 -20 0 -11 5 -20 10 -20 6
0 10 39 10 96 0 109 7 123 67 125 25 1 29 3 13 6 -94 14 -90 12 -80 38 5 14 7
32 4 40 -5 11 1 15 24 15 32 0 66 25 57 41 -4 5 -1 9 4 9 6 0 11 6 11 13 0 7
10 17 23 22 20 9 22 16 19 73 l-4 62 30 0 c17 0 33 -4 36 -8 4 -8 28 -8 69 -3
24 3 -10 51 -37 51 -9 0 -16 5 -16 10 0 11 177 14 205 4z m2075 -105 c-14 -11
-19 -18 -12 -14 21 11 13 -10 -13 -33 -14 -12 -25 -18 -25 -13 0 5 7 14 15 21
8 7 12 17 8 23 -3 5 2 16 12 24 30 21 42 15 15 -8z m311 -20 c-5 -13 -10 -19
-10 -12 -1 15 10 45 15 40 3 -2 0 -15 -5 -28z m27 -4 c-6 -14 -13 -23 -15 -21
-5 5 15 46 22 46 3 0 -1 -11 -7 -25z m39 -27 c-3 -8 -6 -5 -6 6 -1 11 2 17 5
13 3 -3 4 -12 1 -19z m176 2 c3 -11 1 -20 -4 -20 -5 0 -9 9 -9 20 0 11 2 20 4
20 2 0 6 -9 9 -20z m-729 -43 c-6 -19 -5 -20 8 -9 13 10 17 10 22 -4 3 -8 6
-24 6 -35 0 -10 5 -19 10 -19 6 0 10 -12 10 -26 0 -34 27 -62 43 -44 9 10 9
11 0 6 -15 -8 -18 10 -4 18 14 9 23 -25 10 -40 -9 -11 -8 -14 1 -14 7 0 10 -7
7 -14 -4 -10 -1 -13 8 -10 10 4 12 0 8 -15 -4 -15 -1 -21 11 -21 9 0 16 6 16
14 0 8 5 18 12 22 8 5 9 2 4 -12 -16 -39 -18 -54 -7 -54 7 0 9 5 6 10 -3 6 3
10 15 10 14 0 20 -5 18 -17 -2 -12 3 -18 15 -17 9 1 17 -5 17 -13 0 -8 5 -11
10 -8 6 3 10 0 10 -8 0 -8 7 -18 16 -21 8 -3 12 -2 9 4 -3 6 5 10 19 10 18 0
24 -4 20 -14 -3 -8 -1 -17 5 -21 6 -3 11 1 11 9 0 9 5 16 11 16 5 0 7 -4 4
-10 -3 -5 0 -10 9 -10 8 0 16 3 19 8 2 4 2 1 0 -6 -2 -10 4 -11 20 -6 l22 7
-20 -23 -20 -23 25 14 c32 17 51 17 72 1 9 -7 18 -9 21 -5 3 5 21 7 41 5 27
-3 33 -8 29 -21 -4 -12 -2 -12 9 3 19 24 78 32 78 11 0 -16 27 -10 33 8 2 7 3
4 2 -5 -2 -10 1 -21 6 -24 5 -3 9 1 10 8 0 7 4 3 9 -9 5 -13 14 -23 20 -23 6
0 8 5 4 12 -5 7 -3 8 5 4 7 -5 10 -14 7 -22 -3 -8 0 -11 10 -7 17 6 18 15 2
31 -10 10 -8 16 7 30 18 16 18 16 6 0 -10 -14 -11 -21 -2 -32 12 -14 22 -47
24 -77 1 -9 8 -16 15 -15 8 1 19 -8 26 -19 15 -26 28 -36 44 -30 6 2 12 -3 12
-11 0 -8 -4 -13 -9 -10 -5 3 -28 -3 -51 -13 -45 -20 -34 -35 13 -18 35 12 47
2 21 -18 -18 -14 -18 -14 4 -15 12 0 54 9 92 19 44 12 69 16 67 9 -1 -6 9 -15
23 -19 l25 -9 -27 4 c-19 2 -25 -1 -21 -11 3 -7 13 -13 22 -13 11 -1 9 -4 -8
-14 -23 -13 -23 -13 -3 -18 12 -3 23 -1 26 6 2 6 8 1 11 -11 7 -21 8 -21 34
-6 14 8 -3 -13 -39 -47 -36 -34 -64 -66 -63 -71 2 -5 -6 -9 -17 -9 -12 0 -42
-20 -69 -45 -26 -25 -51 -42 -54 -39 -11 12 -53 -6 -100 -41 -25 -19 -50 -34
-54 -33 -42 11 -315 -42 -443 -87 -89 -31 -130 -48 -305 -124 -38 -16 -92 -46
-118 -65 -26 -20 -56 -36 -65 -36 -9 0 -29 -7 -44 -14 -23 -12 -28 -12 -28 -1
0 15 21 25 53 25 13 0 17 3 11 8 -7 4 -14 64 -18 157 -8 171 -8 179 -25 257
-14 65 -20 187 -10 193 3 3 12 26 19 52 16 57 40 108 85 177 20 30 42 86 55
136 12 46 24 87 28 90 11 8 39 98 52 162 6 32 15 60 20 63 5 3 7 13 4 23 -5
15 -4 15 6 -1 6 -9 8 -27 4 -40z m109 38 c-3 -9 -8 -14 -10 -11 -3 3 -2 9 2
15 9 16 15 13 8 -4z m127 12 c0 -2 -10 -12 -21 -23 -22 -19 -22 -19 -10 4 10
18 31 31 31 19z m255 -17 c3 -5 -1 -10 -10 -10 -9 0 -13 5 -10 10 3 6 8 10 10
10 2 0 7 -4 10 -10z m92 -42 c-3 -8 -6 -5 -6 6 -1 11 2 17 5 13 3 -3 4 -12 1
-19z m203 -13 c0 -8 -2 -15 -4 -15 -2 0 -6 7 -10 15 -3 8 -1 15 4 15 6 0 10
-7 10 -15z m-3215 -25 c3 -5 2 -10 -4 -10 -5 0 -13 5 -16 10 -3 6 -2 10 4 10
5 0 13 -4 16 -10z m39 -11 c-3 -5 -10 -7 -15 -3 -5 3 -7 10 -3 15 3 5 10 7 15
3 5 -3 7 -10 3 -15z m-23 -86 c-9 -15 -10 -12 -11 18 0 20 3 39 8 43 11 12 14
-42 3 -61z m-22 50 c0 -5 -4 -17 -9 -28 -8 -18 -9 -17 -9 8 -1 15 4 27 9 27 6
0 10 -3 9 -7z m69 -60 c-9 -2 -19 -12 -21 -21 -3 -12 -5 -10 -6 6 -1 17 4 22
22 21 15 -1 17 -3 5 -6z m-25 -80 c-7 -2 -21 -2 -30 0 -10 3 -4 5 12 5 17 0
24 -2 18 -5z m7 -23 c0 -5 -10 -10 -22 -9 -22 0 -22 1 -3 9 11 5 21 9 23 9 1
1 2 -3 2 -9z m4507 -127 c-3 -10 -5 -4 -5 12 0 17 2 24 5 18 2 -7 2 -21 0 -30z
m-1382 18 c3 -5 1 -12 -5 -16 -5 -3 -10 1 -10 9 0 18 6 21 15 7z m-3130 -111
c-3 -5 -10 -10 -16 -10 -5 0 -9 5 -9 10 0 6 7 10 16 10 8 0 12 -4 9 -10z m808
-45 c-3 -9 -8 -14 -10 -11 -3 3 -2 9 2 15 9 16 15 13 8 -4z m-63 -109 c0 -3
-4 -8 -10 -11 -5 -3 -10 -1 -10 4 0 6 5 11 10 11 6 0 10 -2 10 -4z m-30 -57
c0 -6 -4 -7 -10 -4 -5 3 -10 11 -10 16 0 6 5 7 10 4 6 -3 10 -11 10 -16z m-35
-55 c-8 -16 -15 -23 -15 -16 0 13 22 53 27 48 2 -2 -3 -16 -12 -32z m-90 -24
c-3 -5 -12 -10 -18 -10 -7 0 -6 4 3 10 19 12 23 12 15 0z m65 -20 c0 -5 -5
-10 -11 -10 -5 0 -7 5 -4 10 3 6 8 10 11 10 2 0 4 -4 4 -10z m-73 -62 c-3 -8
-6 -5 -6 6 -1 11 2 17 5 13 3 -3 4 -12 1 -19z m22 -30 c-19 -38 -23 -41 -30
-23 -11 28 -11 43 0 26 8 -12 13 -9 28 16 26 46 28 32 2 -19z m-36 -76 c-7
-28 -23 -29 -23 -1 0 11 5 17 10 14 6 -3 10 -1 10 6 0 7 2 10 5 8 2 -3 2 -15
-2 -27z m2390 -179 c4 -17 -2 -29 -21 -45 -15 -13 -33 -36 -40 -52 -7 -16 -15
-26 -17 -24 -8 8 26 69 41 75 8 3 14 12 14 19 0 24 -28 27 -51 5 -13 -12 -29
-21 -37 -21 -8 0 -12 -6 -8 -15 3 -9 0 -15 -9 -15 -9 0 -12 6 -8 18 9 24 44
62 54 57 8 -6 39 22 39 35 0 5 -4 12 -10 15 -5 3 -10 11 -10 17 0 17 57 -45
63 -69z m-2823 17 c0 -5 -7 -10 -15 -10 -8 0 -15 5 -15 10 0 6 7 10 15 10 8 0
15 -4 15 -10z m-41 -14 c8 -10 9 -28 3 -63 -9 -46 -10 -47 -11 -11 0 20 -5 48
-11 62 -10 28 0 35 19 12z m21 -126 c-20 -13 -30 -12 -30 1 0 5 5 7 10 4 6 -3
10 2 10 11 0 14 3 15 12 6 10 -10 10 -15 -2 -22z m2698 19 c-2 -3 3 -13 11
-22 7 -10 9 -17 4 -17 -5 0 -15 12 -22 26 -8 18 -8 25 0 22 6 -2 9 -6 7 -9z
m53 -50 c-13 -11 -26 -17 -29 -14 -8 8 20 35 37 35 12 -1 11 -5 -8 -21z
m-2176 -39 c3 -5 -1 -10 -10 -10 -9 0 -13 5 -10 10 3 6 8 10 10 10 2 0 7 -4
10 -10z m-284 -117 c-8 -15 -10 -15 -11 -2 0 17 10 32 18 25 2 -3 -1 -13 -7
-23z"/>
<path d="M3830 3589 c0 -5 5 -7 10 -4 6 3 10 8 10 11 0 2 -4 4 -10 4 -5 0 -10
-5 -10 -11z"/>
<path d="M3841 2246 c-1 -26 1 -27 17 -15 27 21 28 23 10 16 -11 -4 -18 0 -21
11 -3 9 -5 4 -6 -12z"/>
<path d="M3877 2211 c-20 -33 -21 -41 -7 -41 6 0 10 6 10 13 0 7 9 18 20 25
12 7 18 17 15 22 -10 16 -20 11 -38 -19z"/>
<path d="M3600 2191 c0 -5 5 -13 10 -16 6 -3 10 -2 10 4 0 5 -4 13 -10 16 -5
3 -10 2 -10 -4z"/>
<path d="M3510 1969 c0 -5 5 -7 10 -4 6 3 10 8 10 11 0 2 -4 4 -10 4 -5 0 -10
-5 -10 -11z"/>
<path d="M3460 1870 c0 -5 5 -10 11 -10 5 0 7 5 4 10 -3 6 -8 10 -11 10 -2 0
-4 -4 -4 -10z"/>
<path d="M438 1833 c7 -3 16 -2 19 1 4 3 -2 6 -13 5 -11 0 -14 -3 -6 -6z"/>
<path d="M286 1771 c-4 -5 13 -13 37 -16 52 -8 87 -4 90 10 3 13 -119 19 -127
6z"/>
<path d="M510 1771 c0 -9 41 -23 48 -16 2 2 1 8 -3 14 -8 13 -45 15 -45 2z"/>
<path d="M195 1680 l-40 -7 43 -2 c23 0 42 4 42 9 0 6 -1 9 -2 9 -2 -1 -21 -5
-43 -9z"/>
<path d="M60 1426 c0 -8 5 -18 10 -21 6 -3 10 1 10 9 0 8 -4 18 -10 21 -5 3
-10 -1 -10 -9z"/>
<path d="M96 1193 c6 -4 14 -21 18 -38 14 -63 15 -71 18 -90 2 -12 -2 -19 -9
-17 -7 1 -13 -5 -13 -13 0 -18 36 -20 37 -2 0 6 4 20 8 30 4 10 3 17 -5 17 -8
0 -10 14 -5 49 6 41 4 49 -12 55 -10 3 -25 9 -33 12 -9 3 -11 2 -4 -3z"/>
<path d="M290 1130 c0 -5 7 -10 15 -10 8 0 15 5 15 10 0 6 -7 10 -15 10 -8 0
-15 -4 -15 -10z"/>
<path d="M130 990 c0 -5 5 -10 11 -10 5 0 7 5 4 10 -3 6 -8 10 -11 10 -2 0 -4
-4 -4 -10z"/>
<path d="M151 854 c0 -11 3 -14 6 -6 3 7 2 16 -1 19 -3 4 -6 -2 -5 -13z"/>
<path d="M5086 5657 c3 -10 9 -15 12 -12 3 3 0 11 -7 18 -10 9 -11 8 -5 -6z"/>
<path d="M5101 5548 c0 -9 -4 -25 -7 -35 -5 -14 -4 -15 5 -7 7 7 11 22 8 35
-2 13 -5 16 -6 7z"/>
<path d="M2761 5484 c0 -11 3 -14 6 -6 3 7 2 16 -1 19 -3 4 -6 -2 -5 -13z"/>
<path d="M5080 5475 c-7 -9 -10 -18 -7 -21 3 -3 10 4 17 15 13 25 8 27 -10 6z"/>
<path d="M3258 5043 c7 -3 16 -2 19 1 4 3 -2 6 -13 5 -11 0 -14 -3 -6 -6z"/>
<path d="M3445 4951 c-3 -5 -1 -12 5 -16 5 -3 10 1 10 9 0 18 -6 21 -15 7z"/>
<path d="M3477 4929 c7 -7 15 -10 18 -7 3 3 -2 9 -12 12 -14 6 -15 5 -6 -5z"/>
<path d="M3627 4859 c7 -7 15 -10 18 -7 3 3 -2 9 -12 12 -14 6 -15 5 -6 -5z"/>
<path d="M3673 4836 c11 -8 25 -12 33 -9 18 7 16 9 -21 17 -28 6 -29 5 -12 -8z"/>
<path d="M3785 4780 c-3 -5 1 -10 9 -10 9 0 16 5 16 10 0 6 -4 10 -9 10 -6 0
-13 -4 -16 -10z"/>
<path d="M3855 4760 c4 -6 11 -8 16 -5 14 9 11 15 -7 15 -8 0 -12 -5 -9 -10z"/>
<path d="M4180 4669 c0 -5 5 -7 10 -4 6 3 10 8 10 11 0 2 -4 4 -10 4 -5 0 -10
-5 -10 -11z"/>
<path d="M3606 4631 c-4 -5 -2 -12 3 -15 5 -4 12 -2 15 3 4 5 2 12 -3 15 -5 4
-12 2 -15 -3z"/>
<path d="M4266 4554 c-4 -10 -2 -22 3 -27 7 -7 13 -5 17 7 4 10 2 22 -3 27 -7
7 -13 5 -17 -7z"/>
<path d="M3918 4543 c7 -3 16 -2 19 1 4 3 -2 6 -13 5 -11 0 -14 -3 -6 -6z"/>
<path d="M4377 4526 c-4 -10 -5 -21 -3 -24 9 -8 36 7 36 20 0 10 -3 9 -9 -1
-7 -11 -10 -10 -13 5 -4 19 -4 19 -11 0z"/>
<path d="M4506 4475 c4 -8 7 -15 9 -15 2 0 5 7 9 15 3 9 0 15 -9 15 -9 0 -12
-6 -9 -15z"/>
<path d="M4235 4470 c3 -5 8 -10 11 -10 2 0 4 5 4 10 0 6 -5 10 -11 10 -5 0
-7 -4 -4 -10z"/>
<path d="M4276 4465 c9 -23 -4 -49 -19 -38 -8 7 -17 4 -29 -8 -15 -16 -15 -18
5 -23 12 -3 32 -6 44 -6 20 0 22 5 21 45 -2 28 -7 45 -15 45 -7 0 -10 -7 -7
-15z"/>
<path d="M4471 4463 c7 -10 15 -20 16 -22 2 -2 3 5 3 17 0 14 -6 22 -16 22
-14 0 -15 -3 -3 -17z"/>
<path d="M4480 4409 c0 -11 5 -17 10 -14 6 3 10 13 10 21 0 8 -4 14 -10 14 -5
0 -10 -9 -10 -21z"/>
<path d="M4324 4380 c-23 -9 -38 -36 -28 -51 3 -5 -2 -9 -10 -9 -11 0 -16 -10
-16 -31 0 -24 -4 -30 -17 -27 -10 2 -17 10 -15 16 1 7 -7 12 -18 12 -22 0 -27
15 -7 23 9 4 9 6 -1 6 -16 1 -62 -28 -62 -40 0 -5 7 -9 16 -9 10 0 14 -7 12
-22 -2 -15 -9 -22 -18 -19 -50 13 -60 13 -60 -2 0 -8 -6 -17 -12 -20 -9 -3 -7
-10 7 -21 23 -18 35 -20 35 -6 0 6 -7 10 -15 10 -8 0 -12 6 -9 14 4 10 18 12
50 8 36 -4 44 -2 44 12 0 22 27 20 40 -3 13 -26 13 -31 -5 -31 -9 0 -12 -6 -9
-15 4 -8 10 -13 14 -10 5 3 12 0 16 -6 3 -6 19 -9 34 -5 15 3 30 3 33 0 2 -3
-16 -25 -41 -49 -41 -40 -47 -43 -62 -30 -21 19 -33 9 -19 -17 6 -10 7 -28 4
-38 -4 -14 -2 -20 9 -20 9 0 16 -7 16 -16 0 -10 -7 -14 -17 -12 -10 2 -17 10
-15 16 1 7 -2 12 -7 12 -4 0 -6 11 -4 24 5 26 -27 99 -35 78 -2 -8 1 -19 7
-25 16 -16 14 -46 -4 -63 -13 -14 -15 -12 -15 11 0 15 -6 33 -14 41 -8 7 -17
19 -19 26 -4 10 -9 8 -20 -4 -8 -10 -19 -18 -26 -18 -6 0 -11 -15 -11 -35 0
-39 6 -43 26 -17 13 16 13 16 14 0 0 -10 4 -18 10 -18 5 0 7 13 3 32 -4 22 -3
29 5 24 16 -10 15 -66 -1 -66 -7 0 -18 -9 -25 -20 -11 -18 -9 -24 18 -46 16
-14 30 -30 30 -36 0 -5 6 -16 14 -23 12 -12 14 -11 15 10 1 14 1 36 2 49 1 14
7 27 14 29 20 8 36 -8 33 -34 -3 -20 2 -24 28 -27 39 -4 94 16 75 27 -9 6 -10
11 -2 15 22 14 10 25 -31 28 l-43 3 38 6 c33 4 44 1 70 -23 36 -34 53 -31 59
11 7 50 -2 90 -23 96 -22 7 -25 25 -4 25 7 0 18 7 23 16 7 12 11 13 17 5 5 -9
10 -9 21 0 11 9 14 8 14 -5 0 -10 9 -16 25 -16 25 0 33 14 15 25 -5 3 -10 1
-10 -5 0 -6 -5 -8 -10 -5 -6 3 -7 18 -4 31 5 19 1 29 -15 40 -27 19 -27 40 0
54 26 14 32 9 33 -30 1 -16 6 -30 13 -30 8 0 11 15 10 40 -1 28 -5 39 -14 36
-20 -8 -47 24 -32 38 8 8 13 8 16 -1 3 -7 12 -13 21 -13 15 1 15 2 -2 15 -11
8 -15 19 -10 27 4 7 4 10 -1 6 -13 -12 -45 11 -45 33 0 12 -5 19 -12 16 -7 -2
-12 -14 -10 -27 3 -15 -1 -21 -10 -18 -7 3 -15 20 -18 39 -5 37 -26 46 -66 29z
m24 -105 c-1 -40 -10 -43 -40 -15 -23 21 -18 34 17 43 11 3 21 5 22 6 1 0 2
-15 1 -34z m-28 -59 c0 -13 -20 -26 -40 -26 -4 0 -6 9 -3 20 6 22 43 28 43 6z
m87 -78 c-3 -8 -6 -5 -6 6 -1 11 2 17 5 13 3 -3 4 -12 1 -19z m-30 -24 c-3 -3
-12 -4 -19 -1 -8 3 -5 6 6 6 11 1 17 -2 13 -5z m-83 -69 c3 -8 1 -15 -4 -15
-6 0 -10 7 -10 15 0 8 2 15 4 15 2 0 6 -7 10 -15z m-129 -74 c-3 -6 -14 -11
-23 -11 -15 1 -15 2 2 15 21 16 32 13 21 -4z"/>
<path d="M1583 4313 c-28 -19 -30 -33 -5 -33 21 0 52 -29 52 -48 0 -7 5 -12
10 -12 6 0 10 4 10 9 0 5 3 16 6 24 4 11 -2 16 -18 19 -13 2 -23 8 -23 13 0 6
-4 16 -8 23 -5 6 -4 12 1 12 6 0 12 -7 16 -15 3 -8 10 -15 16 -15 5 0 10 7 10
15 0 8 -4 15 -9 15 -5 0 -15 2 -23 4 -7 3 -23 -2 -35 -11z"/>
<path d="M5147 4319 c7 -7 15 -10 18 -7 3 3 -2 9 -12 12 -14 6 -15 5 -6 -5z"/>
<path d="M4060 4266 c0 -2 7 -9 15 -16 13 -11 14 -10 9 4 -5 14 -24 23 -24 12z"/>
<path d="M4520 4210 c0 -5 5 -10 10 -10 6 0 10 5 10 10 0 6 -4 10 -10 10 -5 0
-10 -4 -10 -10z"/>
<path d="M2014 4201 c-9 -9 9 -21 32 -21 14 0 24 6 24 14 0 12 -44 18 -56 7z"/>
<path d="M1837 4176 c-4 -10 -1 -13 8 -9 8 3 12 9 9 14 -7 12 -11 11 -17 -5z"/>
<path d="M4150 4175 c0 -8 9 -15 20 -15 24 0 27 15 4 24 -22 9 -24 8 -24 -9z"/>
<path d="M1692 4163 c-18 -2 -30 -9 -27 -14 9 -14 41 -11 55 6 7 8 11 14 9 13
-2 0 -19 -3 -37 -5z"/>
<path d="M5115 4119 c6 -30 15 -37 15 -11 0 11 -4 23 -9 27 -6 3 -8 -4 -6 -16z"/>
<path d="M2665 4120 c-18 -8 -18 -9 5 -10 22 -2 21 -3 -10 -14 -19 -6 -57 -23
-84 -38 -27 -16 -51 -28 -55 -28 -9 0 -51 -64 -51 -78 0 -16 17 -15 23 1 2 6
8 9 12 5 4 -4 2 -14 -5 -23 -7 -8 -8 -15 -2 -15 5 0 12 7 16 15 5 15 19 15 79
-2 19 -5 20 16 2 29 -15 11 27 9 45 -2 9 -5 17 -5 21 1 4 6 16 6 35 -1 20 -8
30 -8 32 -1 2 7 16 3 33 -10 22 -15 33 -18 43 -10 9 7 18 6 34 -5 12 -8 22
-12 22 -9 0 4 14 -3 30 -15 17 -12 27 -26 24 -32 -4 -6 -2 -8 4 -4 6 3 14 1
17 -5 9 -14 -26 -40 -47 -35 -10 2 -18 1 -18 -3 0 -4 -26 -7 -57 -6 -114 0
-267 -29 -260 -49 4 -12 57 -25 109 -27 21 -1 43 -8 49 -15 6 -8 19 -14 28
-14 9 0 23 -6 30 -12 6 -7 15 -13 19 -13 22 -2 52 -18 52 -28 0 -7 4 -6 10 3
8 12 10 11 10 -7 0 -13 5 -23 11 -23 8 0 7 -6 -2 -17 -12 -14 -12 -16 1 -9 8
4 5 -1 -7 -12 -18 -16 -20 -21 -8 -26 21 -8 19 -26 -2 -26 -15 0 -16 -2 -3
-10 18 -12 149 -5 182 10 23 11 37 50 17 50 -6 0 -7 5 -4 10 4 6 23 9 43 8 35
-3 37 -1 40 29 2 23 7 30 18 26 8 -3 14 1 14 8 0 24 -21 89 -28 89 -4 0 -8 12
-8 26 -2 18 2 24 12 20 8 -3 26 -1 40 4 20 8 34 6 57 -5 32 -16 54 -10 24 6
-9 6 -15 14 -12 20 4 5 1 9 -5 9 -7 0 -10 6 -7 14 4 9 -3 16 -16 20 -17 5 -19
8 -8 15 9 6 10 11 2 15 -6 4 -18 0 -27 -8 -21 -22 -34 -20 -34 4 0 13 5 18 15
14 10 -4 15 0 15 11 0 9 -4 13 -10 10 -5 -3 -27 11 -48 32 -21 21 -43 38 -48
38 -26 1 -114 28 -114 36 0 5 -18 9 -40 9 -27 0 -39 4 -37 13 2 11 -20 15
-108 17 -10 1 -25 6 -32 11 -6 6 -18 7 -24 3 -7 -4 -9 -3 -6 3 5 8 -17 26 -26
22 -1 0 -11 -4 -22 -9z m202 -46 c-3 -3 -12 -4 -19 -1 -8 3 -5 6 6 6 11 1 17
-2 13 -5z m-337 -74 c0 -5 -5 -10 -11 -10 -5 0 -7 5 -4 10 3 6 8 10 11 10 2 0
4 -4 4 -10z m610 -50 c0 -5 -4 -10 -10 -10 -5 0 -10 5 -10 10 0 6 5 10 10 10
6 0 10 -4 10 -10z m0 -66 c0 -2 -7 -4 -15 -4 -8 0 -15 4 -15 10 0 5 7 7 15 4
8 -4 15 -8 15 -10z m40 -38 c-14 -13 -27 -21 -30 -19 -5 5 38 43 48 43 4 0 -5
-11 -18 -24z m-47 -1 c-3 -9 -8 -14 -10 -11 -3 3 -2 9 2 15 9 16 15 13 8 -4z
m-186 -11 c-3 -3 -12 -4 -19 -1 -8 3 -5 6 6 6 11 1 17 -2 13 -5z m-117 -64 c3
0 -3 -5 -12 -11 -10 -5 -15 -16 -11 -25 5 -14 3 -15 -15 -5 -28 15 -37 31 -18
31 9 0 16 4 16 9 0 8 9 8 40 1z m57 4 c-3 -3 -12 -4 -19 -1 -8 3 -5 6 6 6 11
1 17 -2 13 -5z"/>
<path d="M4105 4120 c-3 -5 -1 -10 4 -10 6 0 11 5 11 10 0 6 -2 10 -4 10 -3 0
-8 -4 -11 -10z"/>
<path d="M4242 4118 c-18 -18 -15 -27 8 -21 11 3 20 12 20 19 0 17 -12 18 -28
2z"/>
<path d="M4662 4105 c0 -16 2 -22 5 -12 2 9 2 23 0 30 -3 6 -5 -1 -5 -18z"/>
<path d="M4030 4085 c-11 -13 -15 -13 -22 -3 -11 18 2 -53 14 -72 7 -11 8 -10
4 5 -3 11 1 33 9 49 17 33 14 44 -5 21z"/>
<path d="M4413 4044 c-8 -22 5 -30 23 -12 14 14 14 16 -1 21 -9 4 -18 1 -22
-9z"/>
<path d="M2133 4003 c9 -2 23 -2 30 0 6 3 -1 5 -18 5 -16 0 -22 -2 -12 -5z"/>
<path d="M4490 3985 c0 -17 16 -20 25 -5 3 5 12 7 20 3 8 -3 15 0 15 6 0 6
-13 11 -30 11 -20 0 -30 -5 -30 -15z"/>
<path d="M4020 3980 c0 -5 7 -10 15 -10 8 0 15 5 15 10 0 6 -7 10 -15 10 -8 0
-15 -4 -15 -10z"/>
<path d="M4548 3940 c-4 -64 -3 -75 7 -75 6 0 16 -4 23 -9 7 -4 16 -5 20 -1 3
3 1 10 -6 14 -7 4 -13 26 -14 49 0 49 -27 69 -30 22z"/>
<path d="M4475 3941 c5 -18 2 -19 -28 -14 -40 6 -59 -12 -22 -21 14 -4 25 -13
25 -21 0 -8 7 -15 15 -15 7 0 19 -8 24 -17 9 -15 10 -13 11 13 0 46 -11 94
-22 94 -5 0 -7 -9 -3 -19z"/>
<path d="M4517 3933 c-10 -10 -8 -66 3 -83 7 -11 10 0 10 38 0 53 -1 57 -13
45z"/>
<path d="M4110 3840 c0 -5 7 -10 15 -10 8 0 15 5 15 10 0 6 -7 10 -15 10 -8 0
-15 -4 -15 -10z"/>
<path d="M2134 3834 c-24 -10 9 -52 42 -56 45 -5 54 0 54 33 0 28 -2 29 -42
28 -24 0 -48 -3 -54 -5z"/>
<path d="M1903 3823 c-29 -5 -33 -53 -5 -54 44 -2 167 3 171 6 2 3 -4 16 -13
30 -15 22 -23 25 -74 24 -31 -1 -67 -4 -79 -6z"/>
<path d="M1397 3793 c-2 -5 -3 -17 -3 -28 1 -31 31 -24 34 8 2 19 -1 27 -12
27 -8 0 -17 -3 -19 -7z"/>
<path d="M1146 3765 c-14 -13 -26 -26 -26 -29 0 -9 75 7 82 18 27 40 -16 49
-56 11z"/>
<path d="M730 3769 c-80 -4 -246 -12 -370 -18 -342 -17 -360 -19 -360 -44 0
-20 3 -20 153 -14 83 4 271 12 417 18 146 6 274 12 285 15 11 2 34 15 50 28
l30 25 -30 -1 c-16 0 -95 -4 -175 -9z"/>
<path d="M3408 3773 c7 -3 16 -2 19 1 4 3 -2 6 -13 5 -11 0 -14 -3 -6 -6z"/>
<path d="M4280 3769 c0 -5 5 -7 10 -4 6 3 10 8 10 11 0 2 -4 4 -10 4 -5 0 -10
-5 -10 -11z"/>
<path d="M5076 3771 c-4 -7 -5 -15 -2 -18 9 -9 19 4 14 18 -4 11 -6 11 -12 0z"/>
<path d="M4395 3760 c3 -5 8 -10 11 -10 2 0 4 5 4 10 0 6 -5 10 -11 10 -5 0
-7 -4 -4 -10z"/>
<path d="M4295 3740 c3 -5 8 -10 11 -10 2 0 4 5 4 10 0 6 -5 10 -11 10 -5 0
-7 -4 -4 -10z"/>
<path d="M2286 3705 c-3 -8 -1 -15 4 -15 6 0 10 7 10 15 0 8 -2 15 -4 15 -2 0
-6 -7 -10 -15z"/>
<path d="M4460 3700 c0 -5 5 -10 10 -10 6 0 10 5 10 10 0 6 -4 10 -10 10 -5 0
-10 -4 -10 -10z"/>
<path d="M4330 3690 c0 -5 5 -10 10 -10 6 0 10 5 10 10 0 6 -4 10 -10 10 -5 0
-10 -4 -10 -10z"/>
<path d="M4337 3663 c-10 -9 -9 -23 2 -23 5 0 11 7 15 15 5 15 -5 20 -17 8z"/>
<path d="M1348 3595 c-5 -24 -3 -25 38 -25 40 0 44 2 44 25 0 22 -4 25 -39 25
-33 0 -39 -3 -43 -25z"/>
<path d="M555 3594 c-192 -6 -396 -12 -452 -13 l-103 -1 0 -26 0 -26 72 6 c40
3 303 11 583 16 281 6 516 13 523 15 6 3 12 14 12 25 0 19 -5 20 -142 18 -79
0 -300 -7 -493 -14z"/>
<path d="M4537 3599 c7 -7 15 -10 18 -7 3 3 -2 9 -12 12 -14 6 -15 5 -6 -5z"/>
<path d="M2268 3580 c-7 -24 -3 -38 8 -28 3 4 4 17 2 30 l-3 23 -7 -25z"/>
<path d="M3070 3575 c0 -8 2 -15 4 -15 2 0 6 7 10 15 3 8 1 15 -4 15 -6 0 -10
-7 -10 -15z"/>
<path d="M4430 3540 c0 -5 5 -10 10 -10 6 0 10 5 10 10 0 6 -4 10 -10 10 -5 0
-10 -4 -10 -10z"/>
<path d="M2245 3509 c-4 -6 -5 -12 -2 -15 2 -3 7 2 10 11 7 17 1 20 -8 4z"/>
<path d="M1912 3388 c12 -98 15 -106 40 -106 115 2 238 -6 239 -16 1 -11 37
149 38 172 1 9 -38 12 -162 12 l-164 0 9 -62z"/>
<path d="M1308 3423 c-2 -9 1 -70 5 -137 4 -67 9 -166 11 -221 2 -55 6 -149
10 -210 3 -60 8 -164 11 -230 3 -66 8 -163 12 -215 6 -86 8 -91 14 -50 4 25 8
108 9 185 4 375 10 439 37 449 12 5 13 9 3 21 -10 13 -9 19 6 36 28 31 32 151
6 201 -13 25 -16 41 -10 53 5 9 11 43 14 76 l4 59 -64 0 c-52 0 -65 -3 -68
-17z"/>
<path d="M3360 3430 c-13 -8 -12 -10 3 -10 9 0 17 5 17 10 0 12 -1 12 -20 0z"/>
<path d="M4480 3419 c0 -5 5 -7 10 -4 6 3 10 8 10 11 0 2 -4 4 -10 4 -5 0 -10
-5 -10 -11z"/>
<path d="M3692 3301 c16 -25 31 -27 26 -4 -2 10 -11 19 -21 21 -16 3 -17 1 -5
-17z"/>
<path d="M3840 3221 c0 -12 29 -35 36 -28 11 10 -5 37 -21 37 -8 0 -15 -4 -15
-9z"/>
<path d="M3640 3201 c0 -6 5 -13 10 -16 6 -3 10 1 10 9 0 9 -4 16 -10 16 -5 0
-10 -4 -10 -9z"/>
<path d="M4365 3180 c3 -5 8 -10 11 -10 2 0 4 5 4 10 0 6 -5 10 -11 10 -5 0
-7 -4 -4 -10z"/>
<path d="M2805 3173 c-11 -2 -27 -7 -35 -10 -8 -3 -21 -5 -28 -4 -7 1 -15 -5
-18 -13 -3 -9 -10 -13 -15 -10 -5 3 -16 -2 -25 -10 -8 -9 -27 -16 -40 -16 -18
0 -24 -5 -22 -17 2 -11 -6 -22 -19 -28 -12 -5 -24 -17 -26 -27 -3 -10 -13 -18
-22 -18 -18 0 -45 -23 -45 -39 0 -19 110 -2 176 29 36 16 70 30 75 30 5 0 9 4
9 9 0 5 8 12 18 16 18 6 58 52 68 78 7 18 -22 35 -51 30z m26 -56 c-10 -9 -11
-8 -5 6 3 10 9 15 12 12 3 -3 0 -11 -7 -18z"/>
<path d="M3937 3134 c-8 -8 1 -24 14 -24 5 0 9 7 9 15 0 15 -12 20 -23 9z"/>
<path d="M4480 3111 c0 -6 5 -13 10 -16 6 -3 10 1 10 9 0 9 -4 16 -10 16 -5 0
-10 -4 -10 -9z"/>
<path d="M2460 3020 c0 -5 5 -10 10 -10 6 0 10 5 10 10 0 6 -4 10 -10 10 -5 0
-10 -4 -10 -10z"/>
<path d="M1625 2887 c-22 -18 -28 -33 -30 -75 -2 -29 1 -50 5 -47 5 3 11 1 15
-5 3 -5 15 -10 26 -10 10 0 19 -4 19 -10 0 -12 27 -13 32 -1 2 5 37 17 78 28
l75 19 2 37 c1 44 -17 57 -105 76 -74 15 -87 14 -117 -12z"/>
<path d="M3350 2890 c-9 -6 -10 -10 -3 -10 6 0 15 5 18 10 8 12 4 12 -15 0z"/>
<path d="M2720 2879 c0 -5 5 -7 10 -4 6 3 10 8 10 11 0 2 -4 4 -10 4 -5 0 -10
-5 -10 -11z"/>
<path d="M4128 2593 c6 -2 18 -2 25 0 6 3 1 5 -13 5 -14 0 -19 -2 -12 -5z"/>
<path d="M4270 2490 c-6 -11 -7 -20 -3 -20 15 1 43 27 36 33 -11 12 -22 8 -33
-13z"/>
<path d="M2821 2483 c0 -12 2 -13 6 -5 4 10 9 9 20 -5 13 -17 13 -16 3 5 -13
26 -30 29 -29 5z"/>
<path d="M2520 2470 c6 -11 13 -20 16 -20 2 0 0 9 -6 20 -6 11 -13 20 -16 20
-2 0 0 -9 6 -20z"/>
<path d="M2370 2470 c0 -5 5 -10 10 -10 6 0 10 5 10 10 0 6 -4 10 -10 10 -5 0
-10 -4 -10 -10z"/>
<path d="M2867 2446 c-4 -11 -1 -13 10 -9 11 4 14 3 9 -6 -4 -6 -4 -11 1 -10
19 3 27 -2 14 -10 -9 -6 -5 -8 14 -8 19 0 25 4 21 14 -3 8 -6 17 -6 19 0 2 -8
4 -18 4 -10 0 -23 5 -29 11 -7 7 -12 6 -16 -5z"/>
<path d="M2455 2380 c-7 -12 19 -24 37 -17 7 3 4 6 -7 6 -17 1 -17 3 -5 11 13
8 13 10 -2 10 -9 0 -20 -5 -23 -10z"/>
<path d="M2920 2226 c0 -2 7 -6 15 -10 8 -3 15 -1 15 4 0 6 -7 10 -15 10 -8 0
-15 -2 -15 -4z"/>
<path d="M1967 2094 c-10 -14 -17 -31 -15 -39 6 -26 40 10 36 38 l-3 25 -18
-24z"/>
<path d="M4620 1508 c0 -7 5 -20 10 -28 8 -12 10 -9 10 13 0 15 -4 27 -10 27
-5 0 -10 -6 -10 -12z"/>
<path d="M2061 1424 c0 -11 3 -14 6 -6 3 7 2 16 -1 19 -3 4 -6 -2 -5 -13z"/>
<path d="M1830 1381 c0 -6 4 -13 10 -16 6 -3 7 1 4 9 -7 18 -14 21 -14 7z"/>
<path d="M2101 1323 c0 -5 4 -17 9 -28 8 -18 9 -17 9 8 1 15 -3 27 -9 27 -5 0
-10 -3 -9 -7z"/>
<path d="M4675 1320 c3 -5 8 -10 11 -10 2 0 4 5 4 10 0 6 -5 10 -11 10 -5 0
-7 -4 -4 -10z"/>
</g>
</svg>
